<?xml version="1.0" standalone="no"?><!DOCTYPE svg PUBLIC "-//W3C//DTD SVG 1.1//EN" "http://www.w3.org/Graphics/SVG/1.1/DTD/svg11.dtd"><svg t="1675236935213" class="icon" viewBox="0 0 1024 1024" version="1.1" xmlns="http://www.w3.org/2000/svg" p-id="2714" xmlns:xlink="http://www.w3.org/1999/xlink" width="200" height="200"><path d="M790.754133 93.866667C867.733333 93.866667 930.133333 156.266667 930.133333 233.245867v557.508266C930.133333 867.733333 867.733333 930.133333 790.754133 930.133333H233.245867C156.266667 930.133333 93.866667 867.733333 93.866667 790.754133V233.245867C93.866667 156.266667 156.266667 93.866667 233.245867 93.866667h557.508266zM247.125333 861.866667h581.998934a34.133333 34.133333 0 0 0 29.751466-50.858667l-107.208533-190.685867c-13.44-23.906133-43.332267-32.977067-67.7888-20.5696l-130.850133 66.372267a17.066667 17.066667 0 0 1-23.2064-8.042667l-93.405867-201.506133c-11.8912-25.655467-42.3296-36.8128-67.985067-24.917333a51.2 51.2 0 0 0-19.1488 15.36l-176.622933 231.112533A51.2 51.2 0 0 0 162.133333 709.218133v67.6608C162.133333 823.816533 200.183467 861.866667 247.121067 861.866667zM665.6 311.466667c0 25.92 21.013333 46.933333 46.933333 46.933333s46.933333-21.013333 46.933334-46.933333-21.013333-46.933333-46.933334-46.933334-46.933333 21.013333-46.933333 46.933334z" fill="#E0E0E0" p-id="2715"></path></svg>